<svg width="1241" height="388" viewBox="0 0 1241 388" fill="none" xmlns="http://www.w3.org/2000/svg">
    <path
        d="M458.994 291.697C473.856 291.697 487.099 279.537 487.099 262.242C487.099 244.947 473.856 232.515 458.994 232.515C443.86 232.515 430.079 244.137 430.079 261.971V262.782C430.079 280.077 443.32 291.697 458.994 291.697ZM438.186 138.474V200.358C447.374 194.953 457.914 191.981 468.722 191.981C501.96 191.981 533.038 218.465 533.038 262.511C533.038 305.75 503.312 333.042 468.722 333.042C454.13 333.042 440.619 327.907 430.079 319.53V329.799H386.842V138.474H438.186Z"
        fill="white" />
    <path
        d="M651.668 194.953L646.804 237.921C643.29 235.489 637.076 233.868 629.778 233.868C613.565 233.868 600.593 243.325 600.593 262.782V329.8H549.25V194.682H597.621V207.114C607.62 196.034 621.672 191.981 637.614 191.981C644.641 191.981 649.236 193.602 651.668 194.953Z"
        fill="white" />
    <path
        d="M755.708 250.891C752.734 235.489 743.277 227.111 730.576 227.111C717.334 227.111 707.876 234.138 704.902 250.891H755.708ZM658.693 262.242C658.693 223.058 685.446 191.711 730.845 191.711C774.353 191.711 800.025 217.923 800.025 259.539C800.025 264.673 799.485 271.43 798.674 274.943H704.902C708.417 290.615 719.225 297.102 731.926 297.102C743.818 297.102 753.545 291.967 755.978 283.32L797.322 295.75C790.297 320.341 764.354 333.312 733.548 333.312C685.177 333.312 658.693 305.75 658.693 262.242Z"
        fill="white" />
    <path
        d="M974.321 294.129L994.589 194.684H1048.37L1008.64 329.8H946.217L924.599 249.001L903.521 329.8H841.097L801.643 194.684H855.149L875.687 293.858L899.737 194.684H950.271L974.321 294.129Z"
        fill="white" />
    <path
        d="M1061.6 194.683H1112.95V329.799H1061.6V194.683ZM1058.9 151.987C1058.9 136.855 1071.33 123.883 1087.01 123.883C1102.14 123.883 1115.11 136.855 1115.11 151.987C1115.11 167.391 1102.14 180.091 1087.01 180.091C1071.33 180.091 1058.9 167.391 1058.9 151.987Z"
        fill="white" />
    <path
        d="M1219.15 287.914C1226.44 287.914 1232.12 285.482 1235.63 283.861L1240.49 322.503C1231.58 328.719 1216.98 332.501 1203.2 332.501C1169.96 332.501 1150.78 312.505 1150.78 279.537V234.407H1128.35V198.737H1150.78V152.798H1202.12V198.737H1240.49V234.407H1202.12V269.538C1202.12 282.238 1207.8 287.914 1219.15 287.914Z"
        fill="white" />
    <path
        d="M211.201 216.836C148.57 314.109 281.474 385.951 283.227 387.424C246.076 282.039 302.787 229.655 334.783 154.667C383.306 40.9401 281.711 6.10352e-05 281.711 6.10352e-05C327.202 80.3654 264.785 133.616 211.201 216.836ZM94.8365 229.849C48.3832 304.088 146.955 358.92 148.257 360.044C120.703 279.612 162.765 239.632 186.494 182.401C222.483 95.6041 147.133 64.3574 147.133 64.3574C180.873 125.693 134.579 166.335 94.8365 229.849ZM7.93385 243.801C-21.7061 291.169 41.1872 326.153 42.0179 326.872C24.4379 275.553 51.2752 250.045 66.4152 213.528C89.3778 158.148 41.3005 138.211 41.3005 138.211C62.8285 177.345 33.2899 203.277 7.93385 243.801Z"
        fill="url(#paint0_linear_89_78)" />
    <defs>
        <linearGradient id="paint0_linear_89_78" x1="173.956" y1="17.0899" x2="173.956" y2="313.451"
            gradientUnits="userSpaceOnUse">
            <stop stop-color="#E10558" />
            <stop offset="1" stop-color="#FF8408" />
        </linearGradient>
    </defs>
</svg>