<svg width="2143" height="524" viewBox="0 0 2143 524" fill="none" xmlns="http://www.w3.org/2000/svg">
<path d="M716.602 361.2C743.71 361.2 767.864 336.693 767.864 301.839C767.864 266.985 743.71 241.93 716.602 241.93C688.999 241.93 663.863 265.351 663.863 301.293V302.927C663.863 337.782 688.014 361.2 716.602 361.2ZM678.649 52.4061V177.122C695.407 166.229 714.632 160.239 734.345 160.239C794.971 160.239 851.654 213.613 851.654 302.382C851.654 389.522 797.437 444.524 734.345 444.524C707.73 444.524 683.087 434.176 663.863 417.293V437.989H585V52.4061H678.649Z" fill="white"/>
<path d="M1068.03 166.23L1059.16 252.824C1052.75 247.923 1041.41 244.656 1028.1 244.656C998.532 244.656 974.872 263.715 974.872 302.928V437.99H881.225V165.684H969.451V190.739C987.688 168.409 1013.32 160.24 1042.4 160.24C1055.21 160.24 1063.59 163.508 1068.03 166.23Z" fill="white"/>
<path d="M1257.79 278.963C1252.37 247.922 1235.12 231.039 1211.95 231.039C1187.8 231.039 1170.55 245.2 1165.13 278.963H1257.79ZM1080.84 301.838C1080.84 222.87 1129.64 159.696 1212.44 159.696C1291.8 159.696 1338.63 212.522 1338.63 296.392C1338.63 306.737 1337.64 320.355 1336.16 327.436H1165.13C1171.54 359.02 1191.25 372.093 1214.42 372.093C1236.11 372.093 1253.85 361.745 1258.29 344.319L1333.7 369.368C1320.88 418.926 1273.56 445.069 1217.37 445.069C1129.15 445.069 1080.84 389.521 1080.84 301.838Z" fill="white"/>
<path d="M1656.53 366.101L1693.5 165.687H1791.59L1719.13 437.989H1605.27L1565.84 275.154L1527.4 437.989H1413.54L1341.58 165.687H1439.17L1476.63 365.556L1520.5 165.687H1612.67L1656.53 366.101Z" fill="white"/>
<path d="M1815.73 165.685H1909.38V437.988H1815.73V165.685ZM1810.8 79.6388C1810.8 49.1429 1833.48 23.0001 1862.07 23.0001C1889.67 23.0001 1913.33 49.1429 1913.33 79.6388C1913.33 110.683 1889.67 136.277 1862.07 136.277C1833.48 136.277 1810.8 110.683 1810.8 79.6388Z" fill="white"/>
<path d="M2103.08 353.576C2116.39 353.576 2126.74 348.675 2133.15 345.407L2142.02 423.285C2125.75 435.812 2099.14 443.433 2074 443.433C2013.38 443.433 1978.38 403.134 1978.38 336.693V245.743H1937.47V173.855H1978.38V81.2733H2072.03V173.855H2142.02V245.743H2072.03V316.542C2072.03 342.137 2082.38 353.576 2103.08 353.576Z" fill="white"/>
<path d="M285.314 293.276C200.705 424.84 380.247 522.007 382.616 524C332.428 381.464 409.04 310.613 452.264 209.19C517.814 55.3724 380.568 6.08717e-06 380.568 6.08717e-06C442.022 108.696 357.701 180.719 285.314 293.276ZM128.116 310.877C65.3616 411.286 198.524 485.448 200.282 486.968C163.06 378.182 219.881 324.108 251.937 246.702C300.556 129.307 198.764 87.0448 198.764 87.0448C244.343 170.003 181.805 224.972 128.116 310.877ZM10.718 329.747C-29.3232 393.813 55.6404 441.13 56.7626 442.102C33.0135 372.692 69.2684 338.192 89.7213 288.802C120.742 213.899 55.7935 186.933 55.7935 186.933C84.876 239.864 44.9718 274.937 10.718 329.747Z" fill="url(#paint0_linear_109_73)"/>
<defs>
<linearGradient id="paint0_linear_109_73" x1="235" y1="23.1144" x2="235" y2="423.95" gradientUnits="userSpaceOnUse">
<stop stop-color="#E10558"/>
<stop offset="1" stop-color="#FF8408"/>
</linearGradient>
</defs>
</svg>
